<mxfile host="app.diagrams.net" modified="2023-04-29T13:32:27.056Z" agent="Mozilla/5.0 (Windows NT 10.0; Win64; x64) AppleWebKit/537.36 (KHTML, like Gecko) Chrome/112.0.0.0 Safari/537.36" etag="xeGwcuZECKEwg0Ram9Se" version="21.2.3" type="github">
  <diagram name="Page-1" id="ubmwu6Pek4q7jAlciyD4">
    <mxGraphModel dx="4276" dy="4217" grid="1" gridSize="10" guides="1" tooltips="1" connect="1" arrows="1" fold="1" page="1" pageScale="1" pageWidth="850" pageHeight="1100" math="0" shadow="0">
      <root>
        <mxCell id="0" />
        <mxCell id="1" parent="0" />
        <mxCell id="V_F24EzPlMZrGyo3fj2X-1" value="Actor" style="shape=umlActor;verticalLabelPosition=bottom;verticalAlign=top;html=1;outlineConnect=0;" vertex="1" parent="1">
          <mxGeometry x="-675" y="240" width="30" height="60" as="geometry" />
        </mxCell>
        <mxCell id="V_F24EzPlMZrGyo3fj2X-2" value="BOSS" style="text;html=1;align=center;verticalAlign=middle;resizable=0;points=[];autosize=1;strokeColor=none;fillColor=none;" vertex="1" parent="1">
          <mxGeometry x="-690" y="320" width="60" height="30" as="geometry" />
        </mxCell>
        <mxCell id="V_F24EzPlMZrGyo3fj2X-3" value="Memberikan Modal" style="ellipse;whiteSpace=wrap;html=1;" vertex="1" parent="1">
          <mxGeometry x="-470" y="80" width="120" height="80" as="geometry" />
        </mxCell>
        <mxCell id="V_F24EzPlMZrGyo3fj2X-4" value="Memeriksa Keuangan&amp;nbsp;" style="ellipse;whiteSpace=wrap;html=1;" vertex="1" parent="1">
          <mxGeometry x="-470" y="180" width="120" height="80" as="geometry" />
        </mxCell>
        <mxCell id="V_F24EzPlMZrGyo3fj2X-5" value="Memeriksa Buku Kolektor" style="ellipse;whiteSpace=wrap;html=1;" vertex="1" parent="1">
          <mxGeometry x="-470" y="280" width="120" height="80" as="geometry" />
        </mxCell>
        <mxCell id="V_F24EzPlMZrGyo3fj2X-6" value="Memeriksa Buku Kasir" style="ellipse;whiteSpace=wrap;html=1;" vertex="1" parent="1">
          <mxGeometry x="-470" y="380" width="120" height="80" as="geometry" />
        </mxCell>
        <mxCell id="V_F24EzPlMZrGyo3fj2X-7" value="Memberikan Gaji dan Bonus Karyawan" style="ellipse;whiteSpace=wrap;html=1;" vertex="1" parent="1">
          <mxGeometry x="-470" y="470" width="120" height="80" as="geometry" />
        </mxCell>
        <mxCell id="V_F24EzPlMZrGyo3fj2X-8" value="" style="endArrow=none;html=1;rounded=0;exitX=-0.011;exitY=0.408;exitDx=0;exitDy=0;exitPerimeter=0;" edge="1" parent="1" source="V_F24EzPlMZrGyo3fj2X-3">
          <mxGeometry width="50" height="50" relative="1" as="geometry">
            <mxPoint x="-441" y="380" as="sourcePoint" />
            <mxPoint x="-640" y="280" as="targetPoint" />
          </mxGeometry>
        </mxCell>
        <mxCell id="V_F24EzPlMZrGyo3fj2X-9" value="" style="endArrow=none;html=1;rounded=0;exitX=0;exitY=0.5;exitDx=0;exitDy=0;" edge="1" parent="1" source="V_F24EzPlMZrGyo3fj2X-4">
          <mxGeometry width="50" height="50" relative="1" as="geometry">
            <mxPoint x="-461" y="123" as="sourcePoint" />
            <mxPoint x="-640" y="280" as="targetPoint" />
          </mxGeometry>
        </mxCell>
        <mxCell id="V_F24EzPlMZrGyo3fj2X-10" value="" style="endArrow=none;html=1;rounded=0;exitX=0;exitY=0.5;exitDx=0;exitDy=0;" edge="1" parent="1" source="V_F24EzPlMZrGyo3fj2X-5">
          <mxGeometry width="50" height="50" relative="1" as="geometry">
            <mxPoint x="-460" y="230" as="sourcePoint" />
            <mxPoint x="-640" y="280" as="targetPoint" />
          </mxGeometry>
        </mxCell>
        <mxCell id="V_F24EzPlMZrGyo3fj2X-11" value="" style="endArrow=none;html=1;rounded=0;exitX=0.063;exitY=0.72;exitDx=0;exitDy=0;exitPerimeter=0;" edge="1" parent="1" source="V_F24EzPlMZrGyo3fj2X-6">
          <mxGeometry width="50" height="50" relative="1" as="geometry">
            <mxPoint x="-460" y="330" as="sourcePoint" />
            <mxPoint x="-640" y="280" as="targetPoint" />
          </mxGeometry>
        </mxCell>
        <mxCell id="V_F24EzPlMZrGyo3fj2X-12" value="" style="endArrow=none;html=1;rounded=0;exitX=0.011;exitY=0.376;exitDx=0;exitDy=0;exitPerimeter=0;" edge="1" parent="1" source="V_F24EzPlMZrGyo3fj2X-7">
          <mxGeometry width="50" height="50" relative="1" as="geometry">
            <mxPoint x="-465" y="432" as="sourcePoint" />
            <mxPoint x="-640" y="280" as="targetPoint" />
          </mxGeometry>
        </mxCell>
        <mxCell id="V_F24EzPlMZrGyo3fj2X-13" value="Actor" style="shape=umlActor;verticalLabelPosition=bottom;verticalAlign=top;html=1;outlineConnect=0;" vertex="1" parent="1">
          <mxGeometry x="-170" y="240" width="30" height="60" as="geometry" />
        </mxCell>
        <mxCell id="V_F24EzPlMZrGyo3fj2X-14" value="Kasir" style="text;html=1;align=center;verticalAlign=middle;resizable=0;points=[];autosize=1;strokeColor=none;fillColor=none;" vertex="1" parent="1">
          <mxGeometry x="-180" y="320" width="50" height="30" as="geometry" />
        </mxCell>
        <mxCell id="V_F24EzPlMZrGyo3fj2X-15" value="Memberikan Kasbon Ke Kolektor" style="ellipse;whiteSpace=wrap;html=1;" vertex="1" parent="1">
          <mxGeometry x="10" y="90" width="120" height="80" as="geometry" />
        </mxCell>
        <mxCell id="V_F24EzPlMZrGyo3fj2X-16" value="Memeriksa Tagihan Harian Kolektor" style="ellipse;whiteSpace=wrap;html=1;" vertex="1" parent="1">
          <mxGeometry x="10" y="190" width="120" height="80" as="geometry" />
        </mxCell>
        <mxCell id="V_F24EzPlMZrGyo3fj2X-17" value="Menerima Uang Tagihan Harian Kolektor" style="ellipse;whiteSpace=wrap;html=1;" vertex="1" parent="1">
          <mxGeometry x="10" y="290" width="120" height="80" as="geometry" />
        </mxCell>
        <mxCell id="V_F24EzPlMZrGyo3fj2X-18" value="Menyetor Uang Tagihan Ke BOSS" style="ellipse;whiteSpace=wrap;html=1;" vertex="1" parent="1">
          <mxGeometry x="10" y="390" width="120" height="80" as="geometry" />
        </mxCell>
        <mxCell id="V_F24EzPlMZrGyo3fj2X-19" value="" style="endArrow=none;html=1;rounded=0;exitX=0;exitY=0.5;exitDx=0;exitDy=0;" edge="1" parent="1" source="V_F24EzPlMZrGyo3fj2X-15">
          <mxGeometry width="50" height="50" relative="1" as="geometry">
            <mxPoint x="-431" y="133" as="sourcePoint" />
            <mxPoint x="-130" y="270" as="targetPoint" />
          </mxGeometry>
        </mxCell>
        <mxCell id="V_F24EzPlMZrGyo3fj2X-20" value="" style="endArrow=none;html=1;rounded=0;exitX=0;exitY=0.5;exitDx=0;exitDy=0;" edge="1" parent="1" source="V_F24EzPlMZrGyo3fj2X-16">
          <mxGeometry width="50" height="50" relative="1" as="geometry">
            <mxPoint x="20" y="140" as="sourcePoint" />
            <mxPoint x="-130" y="270" as="targetPoint" />
          </mxGeometry>
        </mxCell>
        <mxCell id="V_F24EzPlMZrGyo3fj2X-21" value="" style="endArrow=none;html=1;rounded=0;exitX=0.026;exitY=0.695;exitDx=0;exitDy=0;exitPerimeter=0;" edge="1" parent="1" source="V_F24EzPlMZrGyo3fj2X-17">
          <mxGeometry width="50" height="50" relative="1" as="geometry">
            <mxPoint x="20" y="240" as="sourcePoint" />
            <mxPoint x="-130" y="270" as="targetPoint" />
          </mxGeometry>
        </mxCell>
        <mxCell id="V_F24EzPlMZrGyo3fj2X-22" value="" style="endArrow=none;html=1;rounded=0;exitX=-0.011;exitY=0.382;exitDx=0;exitDy=0;exitPerimeter=0;" edge="1" parent="1" source="V_F24EzPlMZrGyo3fj2X-18">
          <mxGeometry width="50" height="50" relative="1" as="geometry">
            <mxPoint x="23" y="356" as="sourcePoint" />
            <mxPoint x="-130" y="270" as="targetPoint" />
          </mxGeometry>
        </mxCell>
        <mxCell id="V_F24EzPlMZrGyo3fj2X-23" value="Actor" style="shape=umlActor;verticalLabelPosition=bottom;verticalAlign=top;html=1;outlineConnect=0;" vertex="1" parent="1">
          <mxGeometry x="240" y="260" width="30" height="60" as="geometry" />
        </mxCell>
        <mxCell id="V_F24EzPlMZrGyo3fj2X-24" value="Kolektor" style="text;html=1;align=center;verticalAlign=middle;resizable=0;points=[];autosize=1;strokeColor=none;fillColor=none;" vertex="1" parent="1">
          <mxGeometry x="220" y="340" width="70" height="30" as="geometry" />
        </mxCell>
        <mxCell id="V_F24EzPlMZrGyo3fj2X-25" value="Mengambil Kasbon" style="ellipse;whiteSpace=wrap;html=1;" vertex="1" parent="1">
          <mxGeometry x="489" y="43" width="120" height="80" as="geometry" />
        </mxCell>
        <mxCell id="V_F24EzPlMZrGyo3fj2X-26" value="Menagih , Membaharui utang dan Mencari Nasabah" style="ellipse;whiteSpace=wrap;html=1;" vertex="1" parent="1">
          <mxGeometry x="480" y="155" width="140" height="90" as="geometry" />
        </mxCell>
        <mxCell id="V_F24EzPlMZrGyo3fj2X-27" value="Mengisi Buku Tagihan Harian" style="ellipse;whiteSpace=wrap;html=1;" vertex="1" parent="1">
          <mxGeometry x="480" y="270" width="140" height="90" as="geometry" />
        </mxCell>
        <mxCell id="V_F24EzPlMZrGyo3fj2X-28" value="Memberikan Buku Tagihan Ke Kasir Untuk Di cek" style="ellipse;whiteSpace=wrap;html=1;" vertex="1" parent="1">
          <mxGeometry x="480" y="395" width="140" height="90" as="geometry" />
        </mxCell>
        <mxCell id="V_F24EzPlMZrGyo3fj2X-29" value="Menyerahkan Uang Tagihan Lapangan Ke Kasir" style="ellipse;whiteSpace=wrap;html=1;" vertex="1" parent="1">
          <mxGeometry x="480" y="520" width="140" height="90" as="geometry" />
        </mxCell>
        <mxCell id="V_F24EzPlMZrGyo3fj2X-30" value="" style="endArrow=none;html=1;rounded=0;entryX=0;entryY=0.5;entryDx=0;entryDy=0;" edge="1" parent="1" target="V_F24EzPlMZrGyo3fj2X-25">
          <mxGeometry width="50" height="50" relative="1" as="geometry">
            <mxPoint x="280" y="300" as="sourcePoint" />
            <mxPoint x="620" y="290" as="targetPoint" />
          </mxGeometry>
        </mxCell>
        <mxCell id="V_F24EzPlMZrGyo3fj2X-31" value="" style="endArrow=none;html=1;rounded=0;entryX=0;entryY=0.5;entryDx=0;entryDy=0;" edge="1" parent="1" target="V_F24EzPlMZrGyo3fj2X-26">
          <mxGeometry width="50" height="50" relative="1" as="geometry">
            <mxPoint x="280" y="300" as="sourcePoint" />
            <mxPoint x="490" y="90" as="targetPoint" />
          </mxGeometry>
        </mxCell>
        <mxCell id="V_F24EzPlMZrGyo3fj2X-32" value="" style="endArrow=none;html=1;rounded=0;entryX=0;entryY=0.5;entryDx=0;entryDy=0;" edge="1" parent="1" target="V_F24EzPlMZrGyo3fj2X-27">
          <mxGeometry width="50" height="50" relative="1" as="geometry">
            <mxPoint x="280" y="300" as="sourcePoint" />
            <mxPoint x="490" y="210" as="targetPoint" />
          </mxGeometry>
        </mxCell>
        <mxCell id="V_F24EzPlMZrGyo3fj2X-33" value="" style="endArrow=none;html=1;rounded=0;entryX=0;entryY=0.5;entryDx=0;entryDy=0;" edge="1" parent="1" target="V_F24EzPlMZrGyo3fj2X-28">
          <mxGeometry width="50" height="50" relative="1" as="geometry">
            <mxPoint x="280" y="300" as="sourcePoint" />
            <mxPoint x="490" y="325" as="targetPoint" />
          </mxGeometry>
        </mxCell>
        <mxCell id="V_F24EzPlMZrGyo3fj2X-34" value="" style="endArrow=none;html=1;rounded=0;entryX=-0.005;entryY=0.398;entryDx=0;entryDy=0;entryPerimeter=0;" edge="1" parent="1" target="V_F24EzPlMZrGyo3fj2X-29">
          <mxGeometry width="50" height="50" relative="1" as="geometry">
            <mxPoint x="280" y="300" as="sourcePoint" />
            <mxPoint x="490" y="450" as="targetPoint" />
          </mxGeometry>
        </mxCell>
        <mxCell id="V_F24EzPlMZrGyo3fj2X-35" value="&lt;font style=&quot;font-size: 24px;&quot;&gt;Use Case&lt;/font&gt;" style="text;html=1;align=center;verticalAlign=middle;resizable=0;points=[];autosize=1;strokeColor=none;fillColor=none;" vertex="1" parent="1">
          <mxGeometry x="-695" y="43" width="130" height="40" as="geometry" />
        </mxCell>
        <mxCell id="V_F24EzPlMZrGyo3fj2X-36" value="&lt;font style=&quot;font-size: 24px;&quot;&gt;Fish Level&lt;/font&gt;" style="text;html=1;align=center;verticalAlign=middle;resizable=0;points=[];autosize=1;strokeColor=none;fillColor=none;" vertex="1" parent="1">
          <mxGeometry x="-680" y="600" width="130" height="40" as="geometry" />
        </mxCell>
        <mxCell id="V_F24EzPlMZrGyo3fj2X-37" value="Actor" style="shape=umlActor;verticalLabelPosition=bottom;verticalAlign=top;html=1;outlineConnect=0;" vertex="1" parent="1">
          <mxGeometry x="-675" y="870" width="30" height="60" as="geometry" />
        </mxCell>
        <mxCell id="V_F24EzPlMZrGyo3fj2X-38" value="BOSS" style="text;html=1;align=center;verticalAlign=middle;resizable=0;points=[];autosize=1;strokeColor=none;fillColor=none;" vertex="1" parent="1">
          <mxGeometry x="-690" y="950" width="60" height="30" as="geometry" />
        </mxCell>
        <mxCell id="V_F24EzPlMZrGyo3fj2X-39" value="Memeriksa Keuangan&amp;nbsp;" style="ellipse;whiteSpace=wrap;html=1;" vertex="1" parent="1">
          <mxGeometry x="-380" y="880" width="120" height="80" as="geometry" />
        </mxCell>
        <mxCell id="V_F24EzPlMZrGyo3fj2X-40" value="Memeriksa Buku Kolektor" style="ellipse;whiteSpace=wrap;html=1;" vertex="1" parent="1">
          <mxGeometry x="-380" y="1080" width="120" height="80" as="geometry" />
        </mxCell>
        <mxCell id="V_F24EzPlMZrGyo3fj2X-41" value="Memeriksa Buku Kasir" style="ellipse;whiteSpace=wrap;html=1;" vertex="1" parent="1">
          <mxGeometry x="-380" y="1280" width="120" height="80" as="geometry" />
        </mxCell>
        <mxCell id="V_F24EzPlMZrGyo3fj2X-42" value="Memberikan Gaji dan Bonus Karyawan" style="ellipse;whiteSpace=wrap;html=1;" vertex="1" parent="1">
          <mxGeometry x="-380" y="1440" width="120" height="80" as="geometry" />
        </mxCell>
        <mxCell id="V_F24EzPlMZrGyo3fj2X-43" value="" style="endArrow=none;html=1;rounded=0;exitX=-0.011;exitY=0.408;exitDx=0;exitDy=0;exitPerimeter=0;" edge="1" source="V_F24EzPlMZrGyo3fj2X-48" parent="1">
          <mxGeometry width="50" height="50" relative="1" as="geometry">
            <mxPoint x="-441" y="1010" as="sourcePoint" />
            <mxPoint x="-640" y="910" as="targetPoint" />
          </mxGeometry>
        </mxCell>
        <mxCell id="V_F24EzPlMZrGyo3fj2X-44" value="" style="endArrow=none;html=1;rounded=0;exitX=0;exitY=0.5;exitDx=0;exitDy=0;" edge="1" source="V_F24EzPlMZrGyo3fj2X-39" parent="1">
          <mxGeometry width="50" height="50" relative="1" as="geometry">
            <mxPoint x="-461" y="753" as="sourcePoint" />
            <mxPoint x="-640" y="910" as="targetPoint" />
          </mxGeometry>
        </mxCell>
        <mxCell id="V_F24EzPlMZrGyo3fj2X-45" value="" style="endArrow=none;html=1;rounded=0;exitX=0;exitY=0.5;exitDx=0;exitDy=0;" edge="1" source="V_F24EzPlMZrGyo3fj2X-40" parent="1">
          <mxGeometry width="50" height="50" relative="1" as="geometry">
            <mxPoint x="-460" y="860" as="sourcePoint" />
            <mxPoint x="-640" y="910" as="targetPoint" />
          </mxGeometry>
        </mxCell>
        <mxCell id="V_F24EzPlMZrGyo3fj2X-46" value="" style="endArrow=none;html=1;rounded=0;exitX=0.063;exitY=0.72;exitDx=0;exitDy=0;exitPerimeter=0;" edge="1" source="V_F24EzPlMZrGyo3fj2X-41" parent="1">
          <mxGeometry width="50" height="50" relative="1" as="geometry">
            <mxPoint x="-460" y="960" as="sourcePoint" />
            <mxPoint x="-640" y="910" as="targetPoint" />
          </mxGeometry>
        </mxCell>
        <mxCell id="V_F24EzPlMZrGyo3fj2X-47" value="" style="endArrow=none;html=1;rounded=0;exitX=0.011;exitY=0.376;exitDx=0;exitDy=0;exitPerimeter=0;" edge="1" source="V_F24EzPlMZrGyo3fj2X-42" parent="1">
          <mxGeometry width="50" height="50" relative="1" as="geometry">
            <mxPoint x="-465" y="1062" as="sourcePoint" />
            <mxPoint x="-640" y="910" as="targetPoint" />
          </mxGeometry>
        </mxCell>
        <mxCell id="V_F24EzPlMZrGyo3fj2X-48" value="Memberikan Modal" style="ellipse;whiteSpace=wrap;html=1;" vertex="1" parent="1">
          <mxGeometry x="-380" y="690" width="120" height="80" as="geometry" />
        </mxCell>
        <mxCell id="V_F24EzPlMZrGyo3fj2X-49" value="Extends" style="endArrow=block;endSize=16;endFill=0;html=1;rounded=0;exitX=0.5;exitY=1;exitDx=0;exitDy=0;entryX=0;entryY=0;entryDx=0;entryDy=0;" edge="1" parent="1" source="V_F24EzPlMZrGyo3fj2X-52">
          <mxGeometry width="160" relative="1" as="geometry">
            <mxPoint x="-1817.75" y="-1737" as="sourcePoint" />
            <mxPoint x="-2284" y="-2183" as="targetPoint" />
          </mxGeometry>
        </mxCell>
        <mxCell id="V_F24EzPlMZrGyo3fj2X-50" value="Mengedit" style="ellipse;whiteSpace=wrap;html=1;" vertex="1" parent="1">
          <mxGeometry x="-2285.75" y="-2247" width="99" height="15" as="geometry" />
        </mxCell>
        <mxCell id="V_F24EzPlMZrGyo3fj2X-51" value="Menghapus" style="ellipse;whiteSpace=wrap;html=1;" vertex="1" parent="1">
          <mxGeometry x="-2185.25" y="-2240" width="90" height="20" as="geometry" />
        </mxCell>
        <mxCell id="V_F24EzPlMZrGyo3fj2X-52" value="Menambah" style="ellipse;whiteSpace=wrap;html=1;" vertex="1" parent="1">
          <mxGeometry x="-2345.75" y="-2232" width="80" height="20" as="geometry" />
        </mxCell>
        <mxCell id="V_F24EzPlMZrGyo3fj2X-53" value="Extends" style="endArrow=block;endSize=16;endFill=0;html=1;rounded=0;exitX=0.5;exitY=1;exitDx=0;exitDy=0;entryX=0.5;entryY=0;entryDx=0;entryDy=0;" edge="1" parent="1" source="V_F24EzPlMZrGyo3fj2X-50">
          <mxGeometry width="160" relative="1" as="geometry">
            <mxPoint x="-2205.75" y="-2292" as="sourcePoint" />
            <mxPoint x="-2231" y="-2188" as="targetPoint" />
          </mxGeometry>
        </mxCell>
        <mxCell id="V_F24EzPlMZrGyo3fj2X-54" value="Extends" style="endArrow=block;endSize=16;endFill=0;html=1;rounded=0;entryX=0.833;entryY=0.066;entryDx=0;entryDy=0;entryPerimeter=0;exitX=0.42;exitY=1.022;exitDx=0;exitDy=0;exitPerimeter=0;" edge="1" parent="1" source="V_F24EzPlMZrGyo3fj2X-51">
          <mxGeometry width="160" relative="1" as="geometry">
            <mxPoint x="-2150.7499999999995" y="-2212" as="sourcePoint" />
            <mxPoint x="-2182" y="-2186" as="targetPoint" />
          </mxGeometry>
        </mxCell>
      </root>
    </mxGraphModel>
  </diagram>
</mxfile>
